<svg xmlns="http://www.w3.org/2000/svg" xmlns:xlink="http://www.w3.org/1999/xlink" width="200" zoomAndPan="magnify" viewBox="0 0 150 44.999999" height="60" preserveAspectRatio="xMidYMid meet" version="1.0"><defs><g/><clipPath id="aa85c5a890"><path d="M 9.285156 8.324219 L 30 8.324219 L 30 26 L 9.285156 26 Z M 9.285156 8.324219 " clip-rule="nonzero"/></clipPath><clipPath id="c3d32fc5c0"><path d="M 9.285156 8.324219 L 30.285156 8.324219 L 30.285156 26.324219 L 9.285156 26.324219 Z M 9.285156 8.324219 " clip-rule="nonzero"/></clipPath><clipPath id="ee10b00e4e"><path d="M 23.113281 18.675781 L 43.785156 18.675781 L 43.785156 36.675781 L 23.113281 36.675781 Z M 23.113281 18.675781 " clip-rule="nonzero"/></clipPath></defs><g clip-path="url(#aa85c5a890)"><path fill="#d5eafe" d="M 29.945312 17.324219 C 29.945312 22.105469 25.484375 25.980469 19.984375 25.980469 C 17.898438 25.980469 15.96875 25.421875 14.367188 24.476562 C 13.851562 24.855469 12.917969 25.4375 11.613281 25.726562 C 10.996094 25.863281 10.429688 25.90625 9.941406 25.902344 C 9.648438 25.898438 9.566406 25.496094 9.828125 25.363281 C 10.097656 25.222656 10.382812 25.050781 10.671875 24.832031 C 11.578125 24.152344 12.09375 23.367188 12.355469 22.890625 C 10.898438 21.386719 10.019531 19.441406 10.019531 17.324219 C 10.019531 12.546875 14.480469 8.667969 19.984375 8.667969 C 25.484375 8.667969 29.945312 12.546875 29.945312 17.324219 Z M 29.945312 17.324219 " fill-opacity="1" fill-rule="nonzero"/></g><path fill="#ffffff" d="M 19.800781 21.414062 C 22.023438 21.414062 23.828125 19.582031 23.828125 17.324219 C 23.828125 15.066406 22.023438 13.234375 19.800781 13.234375 C 17.578125 13.234375 15.773438 15.066406 15.773438 17.324219 C 15.773438 19.582031 17.578125 21.414062 19.800781 21.414062 Z M 19.800781 21.414062 " fill-opacity="1" fill-rule="nonzero"/><g clip-path="url(#c3d32fc5c0)"><path fill="#194375" d="M 30.285156 17.324219 C 30.285156 22.285156 25.664062 26.324219 19.984375 26.324219 C 17.988281 26.324219 16.058594 25.824219 14.386719 24.882812 C 13.566406 25.449219 12.65625 25.847656 11.683594 26.0625 C 11.113281 26.191406 10.515625 26.253906 9.9375 26.246094 C 9.652344 26.242188 9.414062 26.050781 9.351562 25.765625 C 9.28125 25.476562 9.414062 25.191406 9.675781 25.058594 C 9.953125 24.914062 10.222656 24.746094 10.472656 24.554688 C 11.050781 24.121094 11.554688 23.566406 11.933594 22.941406 C 10.480469 21.351562 9.683594 19.363281 9.683594 17.324219 C 9.683594 15.503906 10.300781 13.75 11.472656 12.253906 C 11.589844 12.105469 11.800781 12.082031 11.945312 12.199219 C 12.09375 12.316406 12.117188 12.53125 12 12.679688 C 10.925781 14.054688 10.359375 15.660156 10.359375 17.324219 C 10.359375 19.265625 11.152344 21.160156 12.597656 22.652344 C 12.703125 22.761719 12.722656 22.925781 12.648438 23.058594 C 12.210938 23.859375 11.59375 24.566406 10.875 25.109375 C 10.65625 25.273438 10.425781 25.421875 10.1875 25.558594 C 10.640625 25.546875 11.097656 25.492188 11.539062 25.390625 C 12.492188 25.179688 13.378906 24.777344 14.171875 24.195312 C 14.28125 24.117188 14.425781 24.109375 14.539062 24.179688 C 16.152344 25.132812 18.035156 25.636719 19.984375 25.636719 C 25.289062 25.636719 29.609375 21.90625 29.609375 17.324219 C 29.609375 12.742188 25.289062 9.011719 19.984375 9.011719 C 17.679688 9.011719 15.449219 9.726562 13.703125 11.027344 C 13.550781 11.136719 13.339844 11.105469 13.230469 10.953125 C 13.121094 10.800781 13.152344 10.585938 13.304688 10.472656 C 15.164062 9.089844 17.535156 8.324219 19.984375 8.324219 C 25.664062 8.324219 30.285156 12.363281 30.285156 17.324219 Z M 19.800781 21.757812 C 17.394531 21.757812 15.4375 19.769531 15.4375 17.324219 C 15.4375 14.882812 17.394531 12.890625 19.800781 12.890625 C 22.207031 12.890625 24.164062 14.882812 24.164062 17.324219 C 24.164062 19.769531 22.207031 21.757812 19.800781 21.757812 Z M 19.800781 21.070312 C 21.835938 21.070312 23.488281 19.390625 23.488281 17.324219 C 23.488281 15.257812 21.835938 13.578125 19.800781 13.578125 C 17.765625 13.578125 16.113281 15.257812 16.113281 17.324219 C 16.113281 19.390625 17.765625 21.070312 19.800781 21.070312 Z M 20.136719 19.515625 L 20.136719 19.277344 L 20.226562 19.277344 C 20.890625 19.277344 21.429688 18.730469 21.429688 18.054688 C 21.429688 17.867188 21.28125 17.710938 21.09375 17.710938 C 20.90625 17.710938 20.753906 17.867188 20.753906 18.054688 C 20.753906 18.351562 20.519531 18.59375 20.226562 18.59375 L 19.375 18.59375 C 19.082031 18.59375 18.84375 18.351562 18.84375 18.054688 L 18.84375 16.570312 C 18.84375 16.273438 19.082031 16.03125 19.375 16.03125 L 20.226562 16.03125 C 20.519531 16.03125 20.753906 16.273438 20.753906 16.570312 C 20.753906 16.757812 20.90625 16.910156 21.09375 16.910156 C 21.28125 16.910156 21.429688 16.757812 21.429688 16.570312 C 21.429688 15.894531 20.890625 15.34375 20.226562 15.34375 L 20.136719 15.34375 L 20.136719 15.101562 C 20.136719 14.910156 19.988281 14.757812 19.800781 14.757812 C 19.613281 14.757812 19.460938 14.910156 19.460938 15.101562 L 19.460938 15.34375 L 19.375 15.34375 C 18.710938 15.34375 18.167969 15.894531 18.167969 16.570312 L 18.167969 18.054688 C 18.167969 18.730469 18.710938 19.277344 19.375 19.277344 L 19.460938 19.277344 L 19.460938 19.515625 C 19.460938 19.703125 19.613281 19.859375 19.800781 19.859375 C 19.988281 19.859375 20.136719 19.703125 20.136719 19.515625 Z M 12.59375 11.933594 C 12.777344 11.933594 12.933594 11.78125 12.933594 11.589844 C 12.933594 11.402344 12.777344 11.246094 12.59375 11.246094 C 12.40625 11.246094 12.257812 11.402344 12.257812 11.589844 C 12.257812 11.78125 12.40625 11.933594 12.59375 11.933594 Z M 12.59375 11.933594 " fill-opacity="1" fill-rule="nonzero"/></g><g clip-path="url(#ee10b00e4e)"><path fill="#ffffff" d="M 22.78125 27.671875 C 22.78125 32.636719 27.476562 36.675781 33.242188 36.675781 C 35.269531 36.675781 37.230469 36.175781 38.925781 35.230469 C 39.761719 35.800781 40.683594 36.195312 41.671875 36.414062 C 42.253906 36.539062 42.859375 36.601562 43.445312 36.59375 C 43.734375 36.589844 43.976562 36.398438 44.042969 36.113281 C 44.109375 35.824219 43.980469 35.542969 43.714844 35.40625 C 43.429688 35.261719 43.160156 35.09375 42.902344 34.90625 C 42.316406 34.472656 41.804688 33.917969 41.417969 33.292969 C 42.894531 31.699219 43.703125 29.714844 43.703125 27.671875 C 43.703125 25.851562 43.078125 24.101562 41.886719 22.605469 C 41.769531 22.457031 41.554688 22.429688 41.40625 22.546875 C 41.257812 22.667969 41.234375 22.882812 41.351562 23.03125 C 42.441406 24.40625 43.019531 26.011719 43.019531 27.671875 C 43.019531 29.617188 42.210938 31.507812 40.746094 33 C 40.640625 33.109375 40.617188 33.277344 40.691406 33.410156 C 41.140625 34.210938 41.761719 34.917969 42.496094 35.457031 C 42.71875 35.621094 42.949219 35.773438 43.191406 35.90625 C 42.730469 35.898438 42.269531 35.839844 41.820312 35.742188 C 40.851562 35.53125 39.953125 35.128906 39.144531 34.546875 C 39.035156 34.46875 38.890625 34.460938 38.773438 34.527344 C 37.136719 35.484375 35.222656 35.988281 33.242188 35.988281 C 27.855469 35.988281 23.46875 32.257812 23.46875 27.671875 C 23.46875 23.089844 27.855469 19.363281 33.242188 19.363281 C 35.585938 19.363281 37.851562 20.078125 39.621094 21.375 C 39.777344 21.488281 39.988281 21.457031 40.101562 21.304688 C 40.214844 21.148438 40.179688 20.933594 40.027344 20.824219 C 38.140625 19.4375 35.730469 18.675781 33.242188 18.675781 C 27.476562 18.675781 22.78125 22.710938 22.78125 27.671875 Z M 33.429688 32.109375 C 35.875 32.109375 37.863281 30.117188 37.863281 27.675781 C 37.863281 25.230469 35.875 23.242188 33.429688 23.242188 C 30.984375 23.242188 28.996094 25.230469 28.996094 27.675781 C 28.996094 30.117188 30.984375 32.109375 33.429688 32.109375 Z M 33.429688 31.421875 C 31.363281 31.421875 29.683594 29.742188 29.683594 27.675781 C 29.683594 25.609375 31.363281 23.929688 33.429688 23.929688 C 35.496094 23.929688 37.175781 25.609375 37.175781 27.675781 C 37.175781 29.742188 35.496094 31.421875 33.429688 31.421875 Z M 33.085938 29.863281 L 33.085938 29.628906 L 32.996094 29.628906 C 32.324219 29.628906 31.773438 29.078125 31.773438 28.40625 C 31.773438 28.214844 31.925781 28.0625 32.117188 28.0625 C 32.304688 28.0625 32.460938 28.214844 32.460938 28.40625 C 32.460938 28.699219 32.699219 28.941406 32.996094 28.941406 L 33.863281 28.941406 C 34.160156 28.941406 34.398438 28.699219 34.398438 28.40625 L 34.398438 26.917969 C 34.398438 26.621094 34.160156 26.378906 33.863281 26.378906 L 32.996094 26.378906 C 32.699219 26.378906 32.460938 26.621094 32.460938 26.917969 C 32.460938 27.109375 32.304688 27.261719 32.117188 27.261719 C 31.925781 27.261719 31.773438 27.109375 31.773438 26.917969 C 31.773438 26.242188 32.324219 25.695312 32.996094 25.695312 L 33.085938 25.695312 L 33.085938 25.453125 C 33.085938 25.261719 33.238281 25.109375 33.429688 25.109375 C 33.617188 25.109375 33.773438 25.261719 33.773438 25.453125 L 33.773438 25.695312 L 33.863281 25.695312 C 34.535156 25.695312 35.085938 26.242188 35.085938 26.917969 L 35.085938 28.40625 C 35.085938 29.078125 34.535156 29.628906 33.863281 29.628906 L 33.773438 29.628906 L 33.773438 29.863281 C 33.773438 30.054688 33.617188 30.207031 33.429688 30.207031 C 33.238281 30.207031 33.085938 30.054688 33.085938 29.863281 Z M 40.746094 22.285156 C 40.5625 22.285156 40.40625 22.132812 40.40625 21.941406 C 40.40625 21.753906 40.5625 21.597656 40.746094 21.597656 C 40.941406 21.597656 41.089844 21.753906 41.089844 21.941406 C 41.089844 22.132812 40.941406 22.285156 40.746094 22.285156 Z M 40.746094 22.285156 " fill-opacity="1" fill-rule="nonzero"/></g><g fill="#d5eafe" fill-opacity="1"><g transform="translate(46.475928, 23.5501)"><g><path d="M 4.46875 0.078125 C 3.625 0.078125 2.875 -0.0351562 2.21875 -0.265625 C 1.570312 -0.503906 1.0625 -0.890625 0.6875 -1.421875 C 0.320312 -1.953125 0.140625 -2.664062 0.140625 -3.5625 C 0.140625 -4.4375 0.320312 -5.191406 0.6875 -5.828125 C 1.050781 -6.460938 1.5625 -6.953125 2.21875 -7.296875 C 2.875 -7.648438 3.632812 -7.828125 4.5 -7.828125 C 5.019531 -7.828125 5.476562 -7.78125 5.875 -7.6875 C 6.28125 -7.601562 6.640625 -7.484375 6.953125 -7.328125 C 7.023438 -7.285156 7.070312 -7.226562 7.09375 -7.15625 C 7.125 -7.09375 7.132812 -7.023438 7.125 -6.953125 C 7.101562 -6.785156 7.078125 -6.582031 7.046875 -6.34375 C 7.023438 -6.101562 7 -5.859375 6.96875 -5.609375 C 6.945312 -5.367188 6.925781 -5.171875 6.90625 -5.015625 C 6.882812 -4.890625 6.828125 -4.8125 6.734375 -4.78125 C 6.640625 -4.757812 6.550781 -4.796875 6.46875 -4.890625 C 6.238281 -5.128906 5.976562 -5.316406 5.6875 -5.453125 C 5.394531 -5.585938 5.050781 -5.65625 4.65625 -5.65625 C 4.144531 -5.65625 3.75 -5.488281 3.46875 -5.15625 C 3.1875 -4.832031 3.046875 -4.359375 3.046875 -3.734375 C 3.046875 -3.234375 3.203125 -2.863281 3.515625 -2.625 C 3.835938 -2.382812 4.265625 -2.265625 4.796875 -2.265625 C 5.265625 -2.265625 5.695312 -2.34375 6.09375 -2.5 C 6.488281 -2.65625 6.863281 -2.914062 7.21875 -3.28125 C 7.300781 -3.375 7.394531 -3.40625 7.5 -3.375 C 7.613281 -3.351562 7.671875 -3.257812 7.671875 -3.09375 C 7.703125 -2.695312 7.722656 -2.300781 7.734375 -1.90625 C 7.753906 -1.519531 7.769531 -1.128906 7.78125 -0.734375 C 7.789062 -0.660156 7.773438 -0.59375 7.734375 -0.53125 C 7.691406 -0.476562 7.644531 -0.4375 7.59375 -0.40625 C 7.375 -0.320312 7.085938 -0.242188 6.734375 -0.171875 C 6.390625 -0.0976562 6.015625 -0.0390625 5.609375 0 C 5.210938 0.0507812 4.832031 0.078125 4.46875 0.078125 Z M 4.46875 0.078125 "/></g></g></g><g fill="#d5eafe" fill-opacity="1"><g transform="translate(54.457048, 23.5501)"><g><path d="M 1.6875 0.046875 C 1.550781 0.046875 1.359375 0.0390625 1.109375 0.03125 C 0.859375 0.0195312 0.648438 0.0078125 0.484375 0 C 0.410156 -0.0078125 0.34375 -0.0390625 0.28125 -0.09375 C 0.226562 -0.15625 0.203125 -0.234375 0.203125 -0.328125 C 0.203125 -1.109375 0.210938 -1.8125 0.234375 -2.4375 C 0.253906 -3.0625 0.28125 -3.640625 0.3125 -4.171875 C 0.34375 -4.703125 0.382812 -5.222656 0.4375 -5.734375 C 0.445312 -5.898438 0.539062 -5.992188 0.71875 -6.015625 C 0.863281 -6.035156 1.035156 -6.046875 1.234375 -6.046875 C 1.441406 -6.054688 1.609375 -6.0625 1.734375 -6.0625 C 1.816406 -6.0625 1.929688 -6.054688 2.078125 -6.046875 C 2.222656 -6.046875 2.367188 -6.046875 2.515625 -6.046875 C 2.671875 -6.046875 2.789062 -6.035156 2.875 -6.015625 C 2.976562 -6.003906 3.054688 -5.960938 3.109375 -5.890625 C 3.171875 -5.816406 3.1875 -5.738281 3.15625 -5.65625 C 3.0625 -5.164062 3.015625 -4.703125 3.015625 -4.265625 C 3.015625 -4.140625 3.046875 -4.070312 3.109375 -4.0625 C 3.171875 -4.0625 3.210938 -4.113281 3.234375 -4.21875 C 3.378906 -4.832031 3.585938 -5.296875 3.859375 -5.609375 C 4.140625 -5.929688 4.488281 -6.09375 4.90625 -6.09375 C 5.132812 -6.09375 5.335938 -6.054688 5.515625 -5.984375 C 5.703125 -5.921875 5.859375 -5.832031 5.984375 -5.71875 C 6.097656 -5.613281 6.15625 -5.484375 6.15625 -5.328125 C 6.132812 -4.984375 6.109375 -4.640625 6.078125 -4.296875 C 6.054688 -3.960938 6.03125 -3.625 6 -3.28125 C 5.988281 -3.15625 5.925781 -3.070312 5.8125 -3.03125 C 5.707031 -2.988281 5.617188 -3.019531 5.546875 -3.125 C 5.367188 -3.28125 5.179688 -3.398438 4.984375 -3.484375 C 4.796875 -3.578125 4.570312 -3.625 4.3125 -3.625 C 4.101562 -3.625 3.898438 -3.566406 3.703125 -3.453125 C 3.515625 -3.347656 3.359375 -3.191406 3.234375 -2.984375 C 3.109375 -2.773438 3.046875 -2.53125 3.046875 -2.25 C 3.046875 -1.914062 3.0625 -1.585938 3.09375 -1.265625 C 3.125 -0.941406 3.160156 -0.640625 3.203125 -0.359375 C 3.222656 -0.253906 3.195312 -0.171875 3.125 -0.109375 C 3.0625 -0.046875 2.988281 -0.00390625 2.90625 0.015625 C 2.8125 0.015625 2.6875 0.0195312 2.53125 0.03125 C 2.375 0.0390625 2.21875 0.046875 2.0625 0.046875 C 1.914062 0.046875 1.789062 0.046875 1.6875 0.046875 Z M 1.6875 0.046875 "/></g></g></g><g fill="#d5eafe" fill-opacity="1"><g transform="translate(60.724768, 23.5501)"><g><path d="M 1.65625 -6.390625 C 1.21875 -6.390625 0.890625 -6.488281 0.671875 -6.6875 C 0.453125 -6.894531 0.34375 -7.160156 0.34375 -7.484375 C 0.34375 -7.785156 0.453125 -8.039062 0.671875 -8.25 C 0.890625 -8.457031 1.21875 -8.5625 1.65625 -8.5625 C 2.101562 -8.5625 2.4375 -8.457031 2.65625 -8.25 C 2.882812 -8.039062 3 -7.785156 3 -7.484375 C 3 -7.160156 2.882812 -6.894531 2.65625 -6.6875 C 2.4375 -6.488281 2.101562 -6.390625 1.65625 -6.390625 Z M 1.6875 0.046875 C 1.550781 0.046875 1.363281 0.0390625 1.125 0.03125 C 0.894531 0.0195312 0.691406 0.0078125 0.515625 0 C 0.429688 -0.0078125 0.359375 -0.046875 0.296875 -0.109375 C 0.242188 -0.171875 0.21875 -0.242188 0.21875 -0.328125 C 0.21875 -1.398438 0.238281 -2.394531 0.28125 -3.3125 C 0.332031 -4.226562 0.382812 -5.035156 0.4375 -5.734375 C 0.457031 -5.898438 0.554688 -5.992188 0.734375 -6.015625 C 0.867188 -6.035156 1.023438 -6.046875 1.203125 -6.046875 C 1.390625 -6.054688 1.550781 -6.0625 1.6875 -6.0625 C 1.789062 -6.0625 1.9375 -6.054688 2.125 -6.046875 C 2.3125 -6.046875 2.46875 -6.035156 2.59375 -6.015625 C 2.769531 -5.992188 2.863281 -5.898438 2.875 -5.734375 C 2.9375 -5.035156 2.988281 -4.226562 3.03125 -3.3125 C 3.070312 -2.394531 3.09375 -1.398438 3.09375 -0.328125 C 3.09375 -0.242188 3.066406 -0.171875 3.015625 -0.109375 C 2.960938 -0.046875 2.894531 -0.0078125 2.8125 0 C 2.644531 0.0078125 2.453125 0.0195312 2.234375 0.03125 C 2.015625 0.0390625 1.832031 0.046875 1.6875 0.046875 Z M 1.6875 0.046875 "/></g></g></g><g fill="#d5eafe" fill-opacity="1"><g transform="translate(64.05208, 23.5501)"><g><path d="M 1.71875 2.59375 C 1.5625 2.59375 1.359375 2.585938 1.109375 2.578125 C 0.859375 2.566406 0.648438 2.554688 0.484375 2.546875 C 0.398438 2.523438 0.332031 2.488281 0.28125 2.4375 C 0.226562 2.382812 0.203125 2.3125 0.203125 2.21875 C 0.203125 1.695312 0.207031 1.097656 0.21875 0.421875 C 0.238281 -0.253906 0.257812 -0.957031 0.28125 -1.6875 C 0.300781 -2.414062 0.328125 -3.125 0.359375 -3.8125 C 0.390625 -4.507812 0.425781 -5.140625 0.46875 -5.703125 C 0.488281 -5.890625 0.585938 -5.992188 0.765625 -6.015625 C 0.921875 -6.035156 1.101562 -6.046875 1.3125 -6.046875 C 1.53125 -6.054688 1.703125 -6.0625 1.828125 -6.0625 C 1.898438 -6.0625 2.007812 -6.054688 2.15625 -6.046875 C 2.300781 -6.046875 2.453125 -6.046875 2.609375 -6.046875 C 2.765625 -6.046875 2.894531 -6.035156 3 -6.015625 C 3.082031 -6.003906 3.15625 -5.96875 3.21875 -5.90625 C 3.289062 -5.84375 3.3125 -5.757812 3.28125 -5.65625 C 3.226562 -5.507812 3.1875 -5.351562 3.15625 -5.1875 C 3.132812 -5.019531 3.125 -4.882812 3.125 -4.78125 C 3.113281 -4.644531 3.140625 -4.566406 3.203125 -4.546875 C 3.265625 -4.535156 3.316406 -4.59375 3.359375 -4.71875 C 3.535156 -5.15625 3.796875 -5.492188 4.140625 -5.734375 C 4.484375 -5.972656 4.867188 -6.09375 5.296875 -6.09375 C 5.992188 -6.09375 6.5625 -5.828125 7 -5.296875 C 7.4375 -4.773438 7.65625 -4.015625 7.65625 -3.015625 C 7.65625 -2.023438 7.429688 -1.257812 6.984375 -0.71875 C 6.546875 -0.175781 5.96875 0.09375 5.25 0.09375 C 4.8125 0.09375 4.414062 -0.0195312 4.0625 -0.25 C 3.71875 -0.476562 3.460938 -0.835938 3.296875 -1.328125 C 3.253906 -1.441406 3.195312 -1.488281 3.125 -1.46875 C 3.0625 -1.457031 3.03125 -1.390625 3.03125 -1.265625 C 3.03125 -0.910156 3.039062 -0.519531 3.0625 -0.09375 C 3.09375 0.332031 3.128906 0.742188 3.171875 1.140625 C 3.210938 1.535156 3.257812 1.882812 3.3125 2.1875 C 3.320312 2.28125 3.296875 2.359375 3.234375 2.421875 C 3.171875 2.492188 3.097656 2.535156 3.015625 2.546875 C 2.910156 2.554688 2.773438 2.5625 2.609375 2.5625 C 2.441406 2.570312 2.273438 2.578125 2.109375 2.578125 C 1.953125 2.585938 1.820312 2.59375 1.71875 2.59375 Z M 4 -1.953125 C 4.257812 -1.953125 4.472656 -2.046875 4.640625 -2.234375 C 4.804688 -2.429688 4.890625 -2.691406 4.890625 -3.015625 C 4.890625 -3.328125 4.800781 -3.570312 4.625 -3.75 C 4.457031 -3.9375 4.25 -4.03125 4 -4.03125 C 3.738281 -4.03125 3.519531 -3.9375 3.34375 -3.75 C 3.175781 -3.570312 3.09375 -3.328125 3.09375 -3.015625 C 3.09375 -2.691406 3.175781 -2.429688 3.34375 -2.234375 C 3.507812 -2.046875 3.726562 -1.953125 4 -1.953125 Z M 4 -1.953125 "/></g></g></g><g fill="#d5eafe" fill-opacity="1"><g transform="translate(71.834224, 23.5501)"><g><path d="M 3.5625 0.09375 C 3.050781 0.09375 2.59375 0.015625 2.1875 -0.140625 C 1.789062 -0.304688 1.472656 -0.554688 1.234375 -0.890625 C 1.003906 -1.222656 0.890625 -1.648438 0.890625 -2.171875 C 0.890625 -2.410156 0.894531 -2.695312 0.90625 -3.03125 C 0.914062 -3.363281 0.941406 -3.695312 0.984375 -4.03125 C 0.992188 -4.082031 0.976562 -4.117188 0.9375 -4.140625 C 0.90625 -4.171875 0.867188 -4.1875 0.828125 -4.1875 C 0.753906 -4.1875 0.679688 -4.1875 0.609375 -4.1875 C 0.535156 -4.1875 0.457031 -4.179688 0.375 -4.171875 C 0.289062 -4.171875 0.222656 -4.203125 0.171875 -4.265625 C 0.117188 -4.328125 0.0859375 -4.398438 0.078125 -4.484375 C 0.0664062 -4.691406 0.0625 -4.894531 0.0625 -5.09375 C 0.0703125 -5.300781 0.078125 -5.507812 0.078125 -5.71875 C 0.0859375 -5.800781 0.117188 -5.867188 0.171875 -5.921875 C 0.222656 -5.984375 0.289062 -6.015625 0.375 -6.015625 L 0.921875 -6.015625 C 1.003906 -6.015625 1.054688 -6.0625 1.078125 -6.15625 C 1.078125 -6.3125 1.082031 -6.476562 1.09375 -6.65625 C 1.113281 -6.84375 1.128906 -7.003906 1.140625 -7.140625 C 1.160156 -7.316406 1.257812 -7.414062 1.4375 -7.4375 C 1.570312 -7.457031 1.726562 -7.46875 1.90625 -7.46875 C 2.082031 -7.476562 2.238281 -7.484375 2.375 -7.484375 C 2.46875 -7.484375 2.585938 -7.484375 2.734375 -7.484375 C 2.878906 -7.484375 3.023438 -7.476562 3.171875 -7.46875 C 3.328125 -7.46875 3.457031 -7.457031 3.5625 -7.4375 C 3.644531 -7.4375 3.71875 -7.398438 3.78125 -7.328125 C 3.851562 -7.253906 3.878906 -7.175781 3.859375 -7.09375 C 3.828125 -6.9375 3.800781 -6.785156 3.78125 -6.640625 C 3.757812 -6.503906 3.75 -6.367188 3.75 -6.234375 C 3.75 -6.078125 3.800781 -6 3.90625 -6 C 4.113281 -6 4.335938 -6.003906 4.578125 -6.015625 C 4.828125 -6.023438 5.0625 -6.03125 5.28125 -6.03125 C 5.363281 -6.03125 5.4375 -6 5.5 -5.9375 C 5.5625 -5.875 5.59375 -5.796875 5.59375 -5.703125 L 5.59375 -4.46875 C 5.59375 -4.382812 5.5625 -4.304688 5.5 -4.234375 C 5.4375 -4.171875 5.363281 -4.140625 5.28125 -4.140625 C 5.101562 -4.160156 4.894531 -4.171875 4.65625 -4.171875 C 4.425781 -4.179688 4.226562 -4.1875 4.0625 -4.1875 C 3.832031 -4.1875 3.707031 -4.085938 3.6875 -3.890625 C 3.664062 -3.691406 3.65625 -3.492188 3.65625 -3.296875 C 3.65625 -3.109375 3.660156 -2.925781 3.671875 -2.75 C 3.679688 -2.53125 3.765625 -2.363281 3.921875 -2.25 C 4.085938 -2.144531 4.285156 -2.09375 4.515625 -2.09375 C 4.628906 -2.09375 4.765625 -2.113281 4.921875 -2.15625 C 5.078125 -2.195312 5.203125 -2.242188 5.296875 -2.296875 C 5.378906 -2.347656 5.460938 -2.351562 5.546875 -2.3125 C 5.628906 -2.269531 5.675781 -2.1875 5.6875 -2.0625 C 5.695312 -1.925781 5.695312 -1.765625 5.6875 -1.578125 C 5.6875 -1.390625 5.6875 -1.203125 5.6875 -1.015625 C 5.6875 -0.835938 5.679688 -0.6875 5.671875 -0.5625 C 5.671875 -0.46875 5.644531 -0.382812 5.59375 -0.3125 C 5.550781 -0.238281 5.5 -0.191406 5.4375 -0.171875 C 5.15625 -0.0976562 4.859375 -0.0351562 4.546875 0.015625 C 4.234375 0.0664062 3.90625 0.09375 3.5625 0.09375 Z M 3.5625 0.09375 "/></g></g></g><g fill="#d5eafe" fill-opacity="1"><g transform="translate(77.604501, 23.5501)"><g><path d="M 3.546875 0.09375 C 2.890625 0.09375 2.300781 -0.00390625 1.78125 -0.203125 C 1.269531 -0.398438 0.863281 -0.710938 0.5625 -1.140625 C 0.269531 -1.566406 0.125 -2.132812 0.125 -2.84375 C 0.125 -3.507812 0.269531 -4.085938 0.5625 -4.578125 C 0.851562 -5.066406 1.257812 -5.441406 1.78125 -5.703125 C 2.300781 -5.972656 2.890625 -6.109375 3.546875 -6.109375 C 4.222656 -6.109375 4.8125 -5.972656 5.3125 -5.703125 C 5.820312 -5.441406 6.222656 -5.066406 6.515625 -4.578125 C 6.804688 -4.085938 6.953125 -3.507812 6.953125 -2.84375 C 6.953125 -2.132812 6.804688 -1.566406 6.515625 -1.140625 C 6.222656 -0.710938 5.820312 -0.398438 5.3125 -0.203125 C 4.800781 -0.00390625 4.210938 0.09375 3.546875 0.09375 Z M 3.546875 -1.84375 C 3.816406 -1.84375 4.039062 -1.945312 4.21875 -2.15625 C 4.394531 -2.363281 4.484375 -2.644531 4.484375 -3 C 4.484375 -3.34375 4.394531 -3.625 4.21875 -3.84375 C 4.050781 -4.070312 3.828125 -4.1875 3.546875 -4.1875 C 3.273438 -4.1875 3.050781 -4.070312 2.875 -3.84375 C 2.707031 -3.625 2.625 -3.34375 2.625 -3 C 2.625 -2.644531 2.707031 -2.363281 2.875 -2.15625 C 3.050781 -1.945312 3.273438 -1.84375 3.546875 -1.84375 Z M 3.546875 -1.84375 "/></g></g></g><g fill="#d5eafe" fill-opacity="1"><g transform="translate(84.690236, 23.5501)"><g><path d="M 4.46875 0.078125 C 3.625 0.078125 2.875 -0.0351562 2.21875 -0.265625 C 1.570312 -0.503906 1.0625 -0.890625 0.6875 -1.421875 C 0.320312 -1.953125 0.140625 -2.664062 0.140625 -3.5625 C 0.140625 -4.4375 0.320312 -5.191406 0.6875 -5.828125 C 1.050781 -6.460938 1.5625 -6.953125 2.21875 -7.296875 C 2.875 -7.648438 3.632812 -7.828125 4.5 -7.828125 C 5.019531 -7.828125 5.476562 -7.78125 5.875 -7.6875 C 6.28125 -7.601562 6.640625 -7.484375 6.953125 -7.328125 C 7.023438 -7.285156 7.070312 -7.226562 7.09375 -7.15625 C 7.125 -7.09375 7.132812 -7.023438 7.125 -6.953125 C 7.101562 -6.785156 7.078125 -6.582031 7.046875 -6.34375 C 7.023438 -6.101562 7 -5.859375 6.96875 -5.609375 C 6.945312 -5.367188 6.925781 -5.171875 6.90625 -5.015625 C 6.882812 -4.890625 6.828125 -4.8125 6.734375 -4.78125 C 6.640625 -4.757812 6.550781 -4.796875 6.46875 -4.890625 C 6.238281 -5.128906 5.976562 -5.316406 5.6875 -5.453125 C 5.394531 -5.585938 5.050781 -5.65625 4.65625 -5.65625 C 4.144531 -5.65625 3.75 -5.488281 3.46875 -5.15625 C 3.1875 -4.832031 3.046875 -4.359375 3.046875 -3.734375 C 3.046875 -3.234375 3.203125 -2.863281 3.515625 -2.625 C 3.835938 -2.382812 4.265625 -2.265625 4.796875 -2.265625 C 5.265625 -2.265625 5.695312 -2.34375 6.09375 -2.5 C 6.488281 -2.65625 6.863281 -2.914062 7.21875 -3.28125 C 7.300781 -3.375 7.394531 -3.40625 7.5 -3.375 C 7.613281 -3.351562 7.671875 -3.257812 7.671875 -3.09375 C 7.703125 -2.695312 7.722656 -2.300781 7.734375 -1.90625 C 7.753906 -1.519531 7.769531 -1.128906 7.78125 -0.734375 C 7.789062 -0.660156 7.773438 -0.59375 7.734375 -0.53125 C 7.691406 -0.476562 7.644531 -0.4375 7.59375 -0.40625 C 7.375 -0.320312 7.085938 -0.242188 6.734375 -0.171875 C 6.390625 -0.0976562 6.015625 -0.0390625 5.609375 0 C 5.210938 0.0507812 4.832031 0.078125 4.46875 0.078125 Z M 4.46875 0.078125 "/></g></g></g><g fill="#d5eafe" fill-opacity="1"><g transform="translate(92.671356, 23.5501)"><g><path d="M 3.546875 0.09375 C 2.890625 0.09375 2.300781 -0.00390625 1.78125 -0.203125 C 1.269531 -0.398438 0.863281 -0.710938 0.5625 -1.140625 C 0.269531 -1.566406 0.125 -2.132812 0.125 -2.84375 C 0.125 -3.507812 0.269531 -4.085938 0.5625 -4.578125 C 0.851562 -5.066406 1.257812 -5.441406 1.78125 -5.703125 C 2.300781 -5.972656 2.890625 -6.109375 3.546875 -6.109375 C 4.222656 -6.109375 4.8125 -5.972656 5.3125 -5.703125 C 5.820312 -5.441406 6.222656 -5.066406 6.515625 -4.578125 C 6.804688 -4.085938 6.953125 -3.507812 6.953125 -2.84375 C 6.953125 -2.132812 6.804688 -1.566406 6.515625 -1.140625 C 6.222656 -0.710938 5.820312 -0.398438 5.3125 -0.203125 C 4.800781 -0.00390625 4.210938 0.09375 3.546875 0.09375 Z M 3.546875 -1.84375 C 3.816406 -1.84375 4.039062 -1.945312 4.21875 -2.15625 C 4.394531 -2.363281 4.484375 -2.644531 4.484375 -3 C 4.484375 -3.34375 4.394531 -3.625 4.21875 -3.84375 C 4.050781 -4.070312 3.828125 -4.1875 3.546875 -4.1875 C 3.273438 -4.1875 3.050781 -4.070312 2.875 -3.84375 C 2.707031 -3.625 2.625 -3.34375 2.625 -3 C 2.625 -2.644531 2.707031 -2.363281 2.875 -2.15625 C 3.050781 -1.945312 3.273438 -1.84375 3.546875 -1.84375 Z M 3.546875 -1.84375 "/></g></g></g><g fill="#d5eafe" fill-opacity="1"><g transform="translate(99.757091, 23.5501)"><g><path d="M 1.71875 0.046875 C 1.550781 0.046875 1.347656 0.0390625 1.109375 0.03125 C 0.867188 0.0195312 0.664062 0.0078125 0.5 0 C 0.414062 -0.0078125 0.34375 -0.046875 0.28125 -0.109375 C 0.226562 -0.171875 0.203125 -0.242188 0.203125 -0.328125 C 0.203125 -1.203125 0.210938 -1.957031 0.234375 -2.59375 C 0.253906 -3.226562 0.285156 -3.796875 0.328125 -4.296875 C 0.367188 -4.796875 0.414062 -5.257812 0.46875 -5.6875 C 0.476562 -5.769531 0.507812 -5.84375 0.5625 -5.90625 C 0.613281 -5.96875 0.679688 -6.003906 0.765625 -6.015625 C 0.898438 -6.035156 1.078125 -6.046875 1.296875 -6.046875 C 1.523438 -6.054688 1.710938 -6.0625 1.859375 -6.0625 C 1.992188 -6.0625 2.164062 -6.054688 2.375 -6.046875 C 2.59375 -6.046875 2.789062 -6.035156 2.96875 -6.015625 C 3.050781 -6.003906 3.125 -5.960938 3.1875 -5.890625 C 3.25 -5.816406 3.265625 -5.734375 3.234375 -5.640625 C 3.160156 -5.367188 3.109375 -5.15625 3.078125 -5 C 3.046875 -4.851562 3.023438 -4.691406 3.015625 -4.515625 C 3.015625 -4.398438 3.046875 -4.335938 3.109375 -4.328125 C 3.171875 -4.328125 3.222656 -4.375 3.265625 -4.46875 C 3.453125 -5.007812 3.710938 -5.414062 4.046875 -5.6875 C 4.390625 -5.957031 4.785156 -6.09375 5.234375 -6.09375 C 5.929688 -6.09375 6.46875 -5.816406 6.84375 -5.265625 C 7.226562 -4.722656 7.457031 -4 7.53125 -3.09375 C 7.550781 -2.882812 7.566406 -2.613281 7.578125 -2.28125 C 7.585938 -1.957031 7.597656 -1.617188 7.609375 -1.265625 C 7.617188 -0.910156 7.617188 -0.585938 7.609375 -0.296875 C 7.597656 -0.117188 7.503906 -0.0195312 7.328125 0 C 7.140625 0.0078125 6.945312 0.0195312 6.75 0.03125 C 6.550781 0.0390625 6.367188 0.046875 6.203125 0.046875 C 6.023438 0.046875 5.832031 0.0390625 5.625 0.03125 C 5.425781 0.0195312 5.226562 0.0078125 5.03125 0 C 4.945312 -0.0078125 4.875 -0.046875 4.8125 -0.109375 C 4.75 -0.171875 4.722656 -0.25 4.734375 -0.34375 C 4.773438 -0.707031 4.804688 -1.066406 4.828125 -1.421875 C 4.859375 -1.785156 4.875 -2.101562 4.875 -2.375 C 4.863281 -2.75 4.773438 -3.066406 4.609375 -3.328125 C 4.453125 -3.597656 4.234375 -3.734375 3.953125 -3.734375 C 3.660156 -3.734375 3.429688 -3.597656 3.265625 -3.328125 C 3.097656 -3.054688 3.015625 -2.738281 3.015625 -2.375 C 3.023438 -2.070312 3.035156 -1.742188 3.046875 -1.390625 C 3.066406 -1.035156 3.09375 -0.679688 3.125 -0.328125 C 3.132812 -0.234375 3.109375 -0.15625 3.046875 -0.09375 C 2.984375 -0.0390625 2.910156 -0.0078125 2.828125 0 C 2.679688 0.0078125 2.5 0.0195312 2.28125 0.03125 C 2.0625 0.0390625 1.875 0.046875 1.71875 0.046875 Z M 1.71875 0.046875 "/></g></g></g><g fill="#d5eafe" fill-opacity="1"><g transform="translate(107.550293, 23.5501)"><g><path d="M 3.515625 0.046875 C 3.410156 0.046875 3.253906 0.046875 3.046875 0.046875 C 2.847656 0.046875 2.644531 0.0390625 2.4375 0.03125 C 2.226562 0.0195312 2.066406 0.0078125 1.953125 0 C 1.816406 -0.0195312 1.726562 -0.0859375 1.6875 -0.203125 C 1.476562 -0.617188 1.265625 -1.128906 1.046875 -1.734375 C 0.835938 -2.335938 0.648438 -2.984375 0.484375 -3.671875 C 0.316406 -4.367188 0.191406 -5.046875 0.109375 -5.703125 C 0.0976562 -5.773438 0.109375 -5.84375 0.140625 -5.90625 C 0.179688 -5.96875 0.242188 -6.003906 0.328125 -6.015625 C 0.421875 -6.023438 0.535156 -6.03125 0.671875 -6.03125 C 0.816406 -6.039062 0.957031 -6.046875 1.09375 -6.046875 C 1.238281 -6.054688 1.347656 -6.0625 1.421875 -6.0625 C 1.503906 -6.0625 1.625 -6.054688 1.78125 -6.046875 C 1.9375 -6.046875 2.09375 -6.039062 2.25 -6.03125 C 2.40625 -6.03125 2.519531 -6.023438 2.59375 -6.015625 C 2.769531 -5.992188 2.859375 -5.898438 2.859375 -5.734375 C 2.859375 -5.460938 2.867188 -5.15625 2.890625 -4.8125 C 2.921875 -4.46875 2.960938 -4.113281 3.015625 -3.75 C 3.066406 -3.394531 3.117188 -3.0625 3.171875 -2.75 C 3.234375 -2.445312 3.296875 -2.191406 3.359375 -1.984375 C 3.398438 -1.835938 3.453125 -1.765625 3.515625 -1.765625 C 3.585938 -1.765625 3.644531 -1.835938 3.6875 -1.984375 C 3.75 -2.191406 3.804688 -2.445312 3.859375 -2.75 C 3.921875 -3.0625 3.976562 -3.394531 4.03125 -3.75 C 4.082031 -4.113281 4.117188 -4.46875 4.140625 -4.8125 C 4.171875 -5.15625 4.1875 -5.460938 4.1875 -5.734375 C 4.1875 -5.816406 4.207031 -5.878906 4.25 -5.921875 C 4.300781 -5.972656 4.363281 -6.003906 4.4375 -6.015625 C 4.519531 -6.035156 4.640625 -6.046875 4.796875 -6.046875 C 4.960938 -6.046875 5.125 -6.046875 5.28125 -6.046875 C 5.445312 -6.054688 5.570312 -6.0625 5.65625 -6.0625 C 5.78125 -6.0625 5.953125 -6.054688 6.171875 -6.046875 C 6.398438 -6.046875 6.570312 -6.035156 6.6875 -6.015625 C 6.78125 -6.003906 6.847656 -5.96875 6.890625 -5.90625 C 6.929688 -5.84375 6.941406 -5.773438 6.921875 -5.703125 C 6.835938 -5.035156 6.707031 -4.359375 6.53125 -3.671875 C 6.363281 -2.984375 6.175781 -2.335938 5.96875 -1.734375 C 5.757812 -1.128906 5.554688 -0.617188 5.359375 -0.203125 C 5.296875 -0.0859375 5.207031 -0.0195312 5.09375 0 C 4.976562 0.0078125 4.816406 0.0195312 4.609375 0.03125 C 4.398438 0.0390625 4.191406 0.046875 3.984375 0.046875 C 3.785156 0.046875 3.628906 0.046875 3.515625 0.046875 Z M 3.515625 0.046875 "/></g></g></g><g fill="#d5eafe" fill-opacity="1"><g transform="translate(114.580754, 23.5501)"><g><path d="M 3.6875 0.09375 C 2.601562 0.09375 1.738281 -0.175781 1.09375 -0.71875 C 0.445312 -1.269531 0.125 -2.0625 0.125 -3.09375 C 0.125 -3.726562 0.265625 -4.269531 0.546875 -4.71875 C 0.828125 -5.175781 1.210938 -5.519531 1.703125 -5.75 C 2.191406 -5.988281 2.757812 -6.109375 3.40625 -6.109375 C 4.28125 -6.109375 4.96875 -5.929688 5.46875 -5.578125 C 5.976562 -5.234375 6.234375 -4.707031 6.234375 -4 C 6.234375 -3.664062 6.125 -3.375 5.90625 -3.125 C 5.695312 -2.875 5.421875 -2.675781 5.078125 -2.53125 C 4.742188 -2.382812 4.382812 -2.3125 4 -2.3125 C 3.726562 -2.3125 3.46875 -2.34375 3.21875 -2.40625 C 2.96875 -2.476562 2.734375 -2.585938 2.515625 -2.734375 C 2.421875 -2.796875 2.347656 -2.804688 2.296875 -2.765625 C 2.253906 -2.722656 2.265625 -2.648438 2.328125 -2.546875 C 2.453125 -2.273438 2.675781 -2.0625 3 -1.90625 C 3.332031 -1.757812 3.664062 -1.6875 4 -1.6875 C 4.394531 -1.6875 4.742188 -1.738281 5.046875 -1.84375 C 5.347656 -1.945312 5.632812 -2.125 5.90625 -2.375 C 5.988281 -2.46875 6.078125 -2.492188 6.171875 -2.453125 C 6.273438 -2.421875 6.332031 -2.328125 6.34375 -2.171875 C 6.375 -1.972656 6.398438 -1.738281 6.421875 -1.46875 C 6.441406 -1.195312 6.457031 -0.96875 6.46875 -0.78125 C 6.476562 -0.625 6.421875 -0.492188 6.296875 -0.390625 C 6.085938 -0.273438 5.835938 -0.179688 5.546875 -0.109375 C 5.253906 -0.0351562 4.945312 0.015625 4.625 0.046875 C 4.300781 0.078125 3.988281 0.09375 3.6875 0.09375 Z M 3.359375 -3.1875 C 3.546875 -3.1875 3.695312 -3.238281 3.8125 -3.34375 C 3.925781 -3.445312 3.984375 -3.585938 3.984375 -3.765625 C 3.984375 -3.960938 3.925781 -4.117188 3.8125 -4.234375 C 3.707031 -4.347656 3.53125 -4.40625 3.28125 -4.40625 C 3.070312 -4.40625 2.878906 -4.335938 2.703125 -4.203125 C 2.523438 -4.078125 2.4375 -3.90625 2.4375 -3.6875 C 2.4375 -3.582031 2.488281 -3.488281 2.59375 -3.40625 C 2.695312 -3.332031 2.816406 -3.273438 2.953125 -3.234375 C 3.097656 -3.203125 3.234375 -3.1875 3.359375 -3.1875 Z M 3.359375 -3.1875 "/></g></g></g><g fill="#d5eafe" fill-opacity="1"><g transform="translate(121.202213, 23.5501)"><g><path d="M 1.6875 0.046875 C 1.550781 0.046875 1.359375 0.0390625 1.109375 0.03125 C 0.859375 0.0195312 0.648438 0.0078125 0.484375 0 C 0.410156 -0.0078125 0.34375 -0.0390625 0.28125 -0.09375 C 0.226562 -0.15625 0.203125 -0.234375 0.203125 -0.328125 C 0.203125 -1.109375 0.210938 -1.8125 0.234375 -2.4375 C 0.253906 -3.0625 0.28125 -3.640625 0.3125 -4.171875 C 0.34375 -4.703125 0.382812 -5.222656 0.4375 -5.734375 C 0.445312 -5.898438 0.539062 -5.992188 0.71875 -6.015625 C 0.863281 -6.035156 1.035156 -6.046875 1.234375 -6.046875 C 1.441406 -6.054688 1.609375 -6.0625 1.734375 -6.0625 C 1.816406 -6.0625 1.929688 -6.054688 2.078125 -6.046875 C 2.222656 -6.046875 2.367188 -6.046875 2.515625 -6.046875 C 2.671875 -6.046875 2.789062 -6.035156 2.875 -6.015625 C 2.976562 -6.003906 3.054688 -5.960938 3.109375 -5.890625 C 3.171875 -5.816406 3.1875 -5.738281 3.15625 -5.65625 C 3.0625 -5.164062 3.015625 -4.703125 3.015625 -4.265625 C 3.015625 -4.140625 3.046875 -4.070312 3.109375 -4.0625 C 3.171875 -4.0625 3.210938 -4.113281 3.234375 -4.21875 C 3.378906 -4.832031 3.585938 -5.296875 3.859375 -5.609375 C 4.140625 -5.929688 4.488281 -6.09375 4.90625 -6.09375 C 5.132812 -6.09375 5.335938 -6.054688 5.515625 -5.984375 C 5.703125 -5.921875 5.859375 -5.832031 5.984375 -5.71875 C 6.097656 -5.613281 6.15625 -5.484375 6.15625 -5.328125 C 6.132812 -4.984375 6.109375 -4.640625 6.078125 -4.296875 C 6.054688 -3.960938 6.03125 -3.625 6 -3.28125 C 5.988281 -3.15625 5.925781 -3.070312 5.8125 -3.03125 C 5.707031 -2.988281 5.617188 -3.019531 5.546875 -3.125 C 5.367188 -3.28125 5.179688 -3.398438 4.984375 -3.484375 C 4.796875 -3.578125 4.570312 -3.625 4.3125 -3.625 C 4.101562 -3.625 3.898438 -3.566406 3.703125 -3.453125 C 3.515625 -3.347656 3.359375 -3.191406 3.234375 -2.984375 C 3.109375 -2.773438 3.046875 -2.53125 3.046875 -2.25 C 3.046875 -1.914062 3.0625 -1.585938 3.09375 -1.265625 C 3.125 -0.941406 3.160156 -0.640625 3.203125 -0.359375 C 3.222656 -0.253906 3.195312 -0.171875 3.125 -0.109375 C 3.0625 -0.046875 2.988281 -0.00390625 2.90625 0.015625 C 2.8125 0.015625 2.6875 0.0195312 2.53125 0.03125 C 2.375 0.0390625 2.21875 0.046875 2.0625 0.046875 C 1.914062 0.046875 1.789062 0.046875 1.6875 0.046875 Z M 1.6875 0.046875 "/></g></g></g><g fill="#d5eafe" fill-opacity="1"><g transform="translate(127.469933, 23.5501)"><g><path d="M 3.234375 0.078125 C 2.929688 0.078125 2.609375 0.0625 2.265625 0.03125 C 1.929688 0 1.597656 -0.0390625 1.265625 -0.09375 C 0.941406 -0.15625 0.648438 -0.222656 0.390625 -0.296875 C 0.234375 -0.335938 0.15625 -0.4375 0.15625 -0.59375 C 0.144531 -0.863281 0.140625 -1.128906 0.140625 -1.390625 C 0.148438 -1.648438 0.160156 -1.914062 0.171875 -2.1875 C 0.171875 -2.320312 0.222656 -2.40625 0.328125 -2.4375 C 0.429688 -2.46875 0.53125 -2.441406 0.625 -2.359375 C 0.925781 -2.160156 1.25 -2.007812 1.59375 -1.90625 C 1.945312 -1.800781 2.28125 -1.75 2.59375 -1.75 C 3.175781 -1.75 3.46875 -1.890625 3.46875 -2.171875 C 3.46875 -2.296875 3.394531 -2.390625 3.25 -2.453125 C 3.101562 -2.523438 2.910156 -2.582031 2.671875 -2.625 C 2.441406 -2.675781 2.191406 -2.738281 1.921875 -2.8125 C 1.660156 -2.882812 1.410156 -2.984375 1.171875 -3.109375 C 0.941406 -3.234375 0.753906 -3.398438 0.609375 -3.609375 C 0.460938 -3.816406 0.390625 -4.085938 0.390625 -4.421875 C 0.390625 -4.992188 0.632812 -5.414062 1.125 -5.6875 C 1.625 -5.957031 2.332031 -6.09375 3.25 -6.09375 C 3.488281 -6.09375 3.75 -6.082031 4.03125 -6.0625 C 4.3125 -6.050781 4.59375 -6.023438 4.875 -5.984375 C 5.164062 -5.953125 5.421875 -5.910156 5.640625 -5.859375 C 5.785156 -5.816406 5.863281 -5.722656 5.875 -5.578125 C 5.882812 -5.367188 5.898438 -5.140625 5.921875 -4.890625 C 5.941406 -4.648438 5.957031 -4.425781 5.96875 -4.21875 C 5.96875 -4.070312 5.921875 -3.976562 5.828125 -3.9375 C 5.742188 -3.90625 5.65625 -3.925781 5.5625 -4 C 5.351562 -4.125 5.109375 -4.222656 4.828125 -4.296875 C 4.546875 -4.367188 4.28125 -4.40625 4.03125 -4.40625 C 3.351562 -4.425781 3.015625 -4.289062 3.015625 -4 C 3.015625 -3.882812 3.09375 -3.796875 3.25 -3.734375 C 3.414062 -3.671875 3.625 -3.613281 3.875 -3.5625 C 4.132812 -3.507812 4.40625 -3.445312 4.6875 -3.375 C 4.976562 -3.300781 5.25 -3.203125 5.5 -3.078125 C 5.757812 -2.953125 5.96875 -2.78125 6.125 -2.5625 C 6.289062 -2.351562 6.375 -2.070312 6.375 -1.71875 C 6.375 -1.15625 6.101562 -0.710938 5.5625 -0.390625 C 5.019531 -0.078125 4.242188 0.078125 3.234375 0.078125 Z M 3.234375 0.078125 "/></g></g></g><g fill="#d5eafe" fill-opacity="1"><g transform="translate(133.980844, 23.5501)"><g><path d="M 1.875 0.09375 C 1.320312 0.09375 0.890625 -0.0351562 0.578125 -0.296875 C 0.273438 -0.566406 0.125 -0.992188 0.125 -1.578125 C 0.125 -1.960938 0.25 -2.285156 0.5 -2.546875 C 0.75 -2.804688 1.082031 -3.015625 1.5 -3.171875 C 1.914062 -3.328125 2.367188 -3.4375 2.859375 -3.5 C 3.210938 -3.539062 3.476562 -3.585938 3.65625 -3.640625 C 3.832031 -3.703125 3.921875 -3.804688 3.921875 -3.953125 C 3.921875 -4.054688 3.859375 -4.148438 3.734375 -4.234375 C 3.609375 -4.328125 3.390625 -4.375 3.078125 -4.375 C 2.878906 -4.375 2.65625 -4.34375 2.40625 -4.28125 C 2.164062 -4.226562 1.914062 -4.148438 1.65625 -4.046875 C 1.40625 -3.953125 1.175781 -3.832031 0.96875 -3.6875 C 0.863281 -3.59375 0.765625 -3.566406 0.671875 -3.609375 C 0.585938 -3.660156 0.546875 -3.757812 0.546875 -3.90625 C 0.535156 -4.144531 0.535156 -4.398438 0.546875 -4.671875 C 0.566406 -4.953125 0.582031 -5.207031 0.59375 -5.4375 C 0.613281 -5.613281 0.6875 -5.726562 0.8125 -5.78125 C 1.019531 -5.851562 1.335938 -5.925781 1.765625 -6 C 2.191406 -6.070312 2.710938 -6.109375 3.328125 -6.109375 C 4.078125 -6.109375 4.671875 -6.015625 5.109375 -5.828125 C 5.554688 -5.640625 5.882812 -5.378906 6.09375 -5.046875 C 6.300781 -4.722656 6.425781 -4.347656 6.46875 -3.921875 C 6.507812 -3.617188 6.546875 -3.257812 6.578125 -2.84375 C 6.609375 -2.425781 6.632812 -2 6.65625 -1.5625 C 6.6875 -1.125 6.707031 -0.71875 6.71875 -0.34375 C 6.71875 -0.15625 6.617188 -0.0390625 6.421875 0 C 6.285156 0.0078125 6.113281 0.0195312 5.90625 0.03125 C 5.695312 0.0390625 5.515625 0.046875 5.359375 0.046875 C 5.210938 0.046875 5.035156 0.0390625 4.828125 0.03125 C 4.628906 0.0195312 4.453125 0.0078125 4.296875 0 C 4.160156 -0.0078125 4.050781 -0.0546875 3.96875 -0.140625 C 3.894531 -0.222656 3.867188 -0.320312 3.890625 -0.4375 C 3.910156 -0.539062 3.929688 -0.671875 3.953125 -0.828125 C 3.972656 -0.992188 3.988281 -1.132812 4 -1.25 C 4 -1.363281 3.96875 -1.425781 3.90625 -1.4375 C 3.851562 -1.445312 3.804688 -1.40625 3.765625 -1.3125 C 3.578125 -0.8125 3.316406 -0.453125 2.984375 -0.234375 C 2.648438 -0.015625 2.28125 0.09375 1.875 0.09375 Z M 3.234375 -1.796875 C 3.335938 -1.796875 3.441406 -1.828125 3.546875 -1.890625 C 3.660156 -1.953125 3.753906 -2.046875 3.828125 -2.171875 C 3.910156 -2.296875 3.953125 -2.441406 3.953125 -2.609375 C 3.953125 -2.734375 3.921875 -2.835938 3.859375 -2.921875 C 3.796875 -3.003906 3.695312 -3.046875 3.5625 -3.046875 C 3.351562 -3.046875 3.160156 -2.972656 2.984375 -2.828125 C 2.816406 -2.679688 2.734375 -2.5 2.734375 -2.28125 C 2.734375 -1.957031 2.898438 -1.796875 3.234375 -1.796875 Z M 3.234375 -1.796875 "/></g></g></g></svg>